<?xml version="1.0" standalone="no"?>
<!DOCTYPE svg PUBLIC "-//W3C//DTD SVG 20010904//EN"
 "http://www.w3.org/TR/2001/REC-SVG-20010904/DTD/svg10.dtd">
<svg version="1.0" xmlns="http://www.w3.org/2000/svg"
 width="1280.000000pt" height="1024.000000pt" viewBox="0 0 1280.000000 1024.000000"
 preserveAspectRatio="xMidYMid meet">
<metadata>
Created by potrace 1.15, written by Peter Selinger 2001-2017
</metadata>
<g transform="translate(0.000000,1024.000000) scale(0.100000,-0.100000)"
fill="#000000" stroke="none">
<path d="M4070 9702 c0 -7 -15 -12 -33 -12 -47 0 -115 -48 -189 -133 -58 -68
-158 -211 -158 -227 0 -4 -33 -19 -72 -35 -148 -57 -228 -124 -228 -191 0 -85
98 -181 238 -234 54 -20 59 -33 61 -142 1 -81 -8 -90 -109 -109 -36 -6 -90
-22 -120 -35 -31 -12 -98 -32 -150 -44 -132 -31 -199 -65 -318 -164 -57 -47
-112 -86 -123 -86 -11 0 -49 -30 -87 -68 -37 -38 -97 -92 -134 -120 -66 -52
-155 -151 -322 -355 -48 -59 -113 -126 -144 -149 -68 -50 -162 -127 -180 -148
-20 -24 -59 -103 -86 -172 -13 -35 -40 -96 -60 -137 l-35 -74 24 -29 c14 -16
25 -34 25 -40 0 -11 -129 -221 -211 -344 -26 -38 -82 -130 -124 -204 -42 -74
-90 -150 -106 -170 -202 -242 -252 -334 -389 -725 -83 -236 -138 -367 -209
-495 -50 -92 -156 -250 -167 -250 -2 0 -15 18 -29 40 -27 43 -51 54 -40 19 4
-13 0 -34 -10 -53 -16 -29 -16 -35 -2 -61 l15 -29 -105 -68 c-151 -99 -363
-321 -418 -439 -30 -66 -32 -95 -5 -104 11 -3 20 -9 20 -13 0 -4 -21 -38 -45
-76 -47 -72 -53 -94 -33 -114 25 -25 52 -10 126 68 41 44 77 78 80 76 2 -3
-24 -57 -58 -120 -63 -118 -68 -141 -38 -159 30 -19 64 8 149 123 l83 111 36
-39 c50 -56 70 -59 138 -25 55 27 57 29 55 64 -2 34 3 41 70 97 40 32 95 74
122 91 66 42 200 190 219 244 8 23 20 61 26 85 6 24 18 46 26 49 23 8 50 83
57 153 4 48 16 85 44 140 65 127 200 332 290 441 147 179 169 211 258 380 129
243 194 336 331 474 133 134 233 250 347 402 85 113 86 114 141 128 35 9 40
15 64 75 18 46 42 81 79 118 29 29 57 51 63 47 5 -3 12 -22 16 -41 4 -20 22
-56 41 -81 43 -56 53 -83 53 -141 0 -47 67 -288 95 -343 8 -15 35 -45 60 -66
25 -20 45 -43 45 -51 0 -7 20 -73 44 -145 28 -83 46 -158 49 -202 3 -39 17
-101 31 -138 l25 -67 -19 -43 c-28 -63 -50 -155 -50 -207 0 -25 13 -108 29
-185 l28 -140 78 -25 c43 -14 80 -31 82 -37 6 -17 -10 -44 -95 -163 -41 -58
-116 -148 -166 -200 -95 -100 -315 -390 -394 -520 -25 -41 -73 -138 -108 -215
-34 -77 -76 -170 -93 -208 -41 -91 -57 -141 -81 -249 -55 -254 10 -371 299
-537 80 -46 155 -78 297 -125 104 -35 234 -80 289 -101 55 -20 150 -49 210
-65 185 -48 256 -56 815 -95 350 -25 643 -76 910 -161 85 -27 115 -41 141 -68
19 -19 63 -49 99 -67 36 -17 88 -48 115 -69 66 -49 73 -52 195 -94 105 -37
177 -75 195 -105 5 -9 19 -38 30 -66 32 -77 91 -163 127 -185 68 -41 214 -17
243 41 21 40 19 148 -5 249 -25 102 -254 780 -304 899 -43 101 -74 150 -101
157 -31 8 -111 -13 -200 -53 -167 -74 -201 -91 -248 -126 -56 -44 -72 -45
-192 -13 -138 37 -287 93 -555 208 -135 58 -306 127 -380 153 -159 56 -170 61
-235 115 -82 70 -159 102 -389 165 -70 19 -78 12 104 105 189 97 535 337 945
655 263 204 351 258 620 375 164 71 602 248 755 305 69 25 163 65 210 88 121
61 354 188 424 231 70 42 80 44 70 14 -30 -95 -36 -143 -44 -333 -5 -115 -12
-221 -15 -235 -3 -14 -30 -162 -60 -330 -60 -330 -87 -444 -135 -568 -38 -98
-60 -127 -101 -136 -39 -7 -87 -57 -130 -133 -17 -32 -49 -81 -71 -109 -38
-50 -38 -52 -38 -143 0 -116 14 -148 89 -202 55 -40 91 -58 452 -232 187 -90
281 -146 388 -232 122 -98 341 -186 550 -220 176 -30 295 -10 367 60 49 47 68
104 62 182 -6 71 -40 118 -139 193 -44 34 -108 86 -141 116 -33 30 -126 93
-206 142 -170 102 -257 172 -325 262 -31 41 -60 68 -78 74 -24 7 -37 24 -66
85 -35 74 -36 78 -30 166 17 261 69 417 285 845 224 446 278 584 337 870 18
91 44 201 56 245 19 68 23 106 23 250 l1 170 -37 77 c-114 233 -342 302 -905
277 -293 -13 -909 -70 -1033 -96 -48 -9 -110 -14 -169 -12 l-93 4 -35 40 c-19
22 -51 67 -71 100 -36 58 -37 63 -40 170 -3 106 -5 111 -33 141 -16 17 -57 43
-89 59 -56 27 -61 33 -81 84 -27 73 -26 109 5 216 15 50 32 133 37 185 20 191
58 337 99 384 16 18 73 56 127 85 152 83 202 113 242 148 l38 32 59 -14 c77
-18 71 -19 88 13 18 35 52 46 212 66 66 9 168 30 225 47 69 21 140 34 210 39
121 10 155 23 301 121 103 70 140 112 233 267 70 116 71 117 145 157 48 25
100 65 145 110 42 43 93 82 130 100 63 32 80 60 54 92 -11 12 -26 14 -74 9
-33 -3 -71 -9 -84 -12 -16 -5 -22 -3 -18 3 4 6 19 14 34 18 42 10 63 34 63 72
0 50 -30 75 -80 67 -36 -6 -40 -4 -40 14 0 11 -9 30 -19 43 l-19 24 -61 -17
c-34 -9 -61 -12 -61 -6 0 17 32 72 66 114 38 46 42 73 16 97 -40 37 -89 11
-173 -92 -29 -35 -87 -90 -128 -123 -41 -32 -85 -73 -98 -91 -39 -51 -82 -142
-89 -186 -6 -38 -10 -42 -48 -51 -97 -23 -210 -66 -283 -107 -186 -104 -195
-107 -333 -109 -69 -1 -145 -7 -167 -13 -50 -14 -82 -7 -143 28 -35 20 -64 27
-126 31 -69 5 -94 13 -170 49 -84 41 -95 44 -184 46 -97 3 -154 17 -215 55
-18 11 -45 20 -60 20 -35 0 -180 -36 -228 -57 -20 -9 -39 -14 -42 -12 -2 3 3
27 11 54 21 69 13 220 -20 365 -34 148 -62 204 -134 270 -31 29 -92 87 -135
129 l-78 76 -87 7 c-202 17 -392 21 -392 10z"/>
<path d="M10670 1856 c-156 -23 -303 -67 -508 -152 -183 -76 -223 -87 -582
-148 -124 -22 -377 -67 -820 -146 -58 -10 -154 -28 -215 -39 -60 -11 -123 -22
-140 -25 -16 -3 -91 -17 -165 -32 -74 -14 -169 -31 -210 -39 -41 -7 -160 -30
-265 -49 -104 -20 -228 -43 -275 -52 -47 -9 -132 -26 -190 -37 -90 -19 -138
-22 -340 -22 -129 0 -325 4 -435 8 -218 9 -258 4 -263 -32 -7 -44 8 -91 34
-108 43 -28 223 -82 328 -98 274 -42 691 -93 773 -94 29 -1 33 -4 38 -38 12
-72 15 -82 42 -114 34 -40 120 -79 174 -79 46 0 104 22 136 51 l21 21 65 -26
c36 -14 70 -26 76 -26 23 0 51 -41 51 -74 0 -81 57 -148 156 -185 95 -36 136
-38 186 -8 55 32 93 72 112 119 20 47 21 148 2 193 -21 49 -113 107 -200 125
-55 11 -70 18 -77 37 -5 13 -13 23 -19 23 -5 0 -10 4 -10 9 0 11 59 25 345 80
121 24 228 47 237 52 10 5 25 9 35 9 20 0 126 24 198 45 47 13 162 40 365 85
47 10 126 28 175 40 188 43 206 46 217 27 17 -31 64 -47 139 -47 71 0 72 0
109 40 20 22 44 40 53 40 9 0 32 -16 52 -35 29 -30 38 -34 55 -25 10 6 23 17
27 24 7 13 25 12 128 -2 l119 -17 11 -39 c19 -66 66 -94 186 -110 37 -6 51 -3
79 16 55 37 74 81 74 165 0 66 -2 75 -28 102 -33 34 -90 51 -173 51 -54 0 -62
-3 -90 -32 -17 -18 -34 -41 -40 -50 -8 -16 -11 -16 -43 6 -19 12 -48 31 -63
40 -33 20 -28 32 16 41 129 27 479 109 512 120 107 36 195 96 249 169 37 50
38 53 32 115 -6 70 -13 79 -86 113 -57 27 -230 33 -370 14z"/>
</g>
</svg>
